<svg width="16" height="16" viewBox="0 0 16 16" fill="none" xmlns="http://www.w3.org/2000/svg">
<path fill-rule="evenodd" clip-rule="evenodd" d="M8 16C3.6 16 0 12.416 0 8C0 3.584 3.6 0 8 0C12.4 0 16 3.584 16 8C16 12.416 12.4 16 8 16ZM8 1.6C4.48 1.6 1.6 4.464 1.6 8C1.6 11.536 4.48 14.4 8 14.4C11.52 14.4 14.4 11.536 14.4 8C14.4 4.464 11.52 1.6 8 1.6ZM8 3.80801C8.48 3.80801 8.8 4.16801 8.8 4.60801V7.2H11.3602C11.8402 7.2 12.1602 7.56 12.1602 8C12.1602 8.44 11.8402 8.8 11.3602 8.8H8.8V11.3922C8.8 11.8322 8.48 12.1922 8 12.1922C7.52 12.1922 7.2 11.8322 7.2 11.3922V8.8H4.63984C4.15984 8.8 3.83984 8.44 3.83984 8C3.83984 7.56 4.15984 7.2 4.63984 7.2H7.2V4.60801C7.2 4.16001 7.52 3.80801 8 3.80801Z" fill="white"/>
</svg>
