<svg width="18" height="17" viewBox="0 0 18 17" fill="none" xmlns="http://www.w3.org/2000/svg">
<path fill-rule="evenodd" clip-rule="evenodd" d="M2.99707 6.30351H6.3H11.7H15.0029L13.8687 13.6426C13.8057 14.0838 13.4277 14.408 12.9867 14.408H5.01284C4.57184 14.408 4.19386 14.0838 4.13086 13.6426L2.99707 6.30351ZM12.6 3.602V4.5025H15.0029H17.1C17.595 4.5025 18 4.90773 18 5.403C18 5.89828 17.595 6.30351 17.1 6.30351H16.8029C16.8029 6.39356 16.7939 6.48359 16.7849 6.57364L15.6511 13.9127C15.4531 15.2275 14.3187 16.2 12.9867 16.2H5.01284C3.68084 16.2 2.54688 15.2275 2.34888 13.9127L1.21509 6.57364C1.20609 6.48359 1.19707 6.39356 1.19707 6.30351H0.9C0.405 6.30351 0 5.89828 0 5.403C0 4.90773 0.405 4.5025 0.9 4.5025H2.99707H5.4V3.602C5.4 1.6119 7.011 0 9 0C10.989 0 12.6 1.6119 12.6 3.602ZM7.2 3.602V4.5025H10.8V3.602C10.8 2.60245 9.99 1.801 9 1.801C8.01 1.801 7.2 2.61145 7.2 3.602ZM9 12.607C8.505 12.607 8.1 12.2018 8.1 11.7065V9.00501C8.1 8.50973 8.505 8.10451 9 8.10451C9.495 8.10451 9.9 8.50973 9.9 9.00501V11.7065C9.9 12.2018 9.495 12.607 9 12.607ZM5.4 11.7065C5.4 12.2018 5.805 12.607 6.3 12.607C6.795 12.607 7.2 12.2018 7.2 11.7065V9.00501C7.2 8.50973 6.795 8.10451 6.3 8.10451C5.805 8.10451 5.4 8.50973 5.4 9.00501V11.7065ZM10.8 11.7065C10.8 12.2018 11.205 12.607 11.7 12.607C12.195 12.607 12.6 12.2018 12.6 11.7065V9.00501C12.6 8.50973 12.195 8.10451 11.7 8.10451C11.205 8.10451 10.8 8.50973 10.8 9.00501V11.7065Z" fill="black"/>
</svg>
