<svg width="16" height="16" viewBox="0 0 16 16" fill="none" xmlns="http://www.w3.org/2000/svg">
<path fill-rule="evenodd" clip-rule="evenodd" d="M14.4 8C14.4 11.536 11.52 14.4 8 14.4C4.48 14.4 1.6 11.536 1.6 8C1.6 4.464 4.48 1.6 8 1.6C11.52 1.6 14.4 4.464 14.4 8ZM16 8C16 12.416 12.4 16 8 16C3.6 16 0 12.416 0 8C0 3.584 3.6 0 8 0C12.4 0 16 3.584 16 8ZM8.8 4C8.8 3.56 8.48 3.2 8 3.2C7.52 3.2 7.2 3.56 7.2 4V8C7.2 8.256 7.28031 8.48799 7.52031 8.63999L10.7203 11.04C11.0403 11.304 11.6006 11.232 11.8406 10.88C12.0806 10.528 12.0005 10.024 11.6805 9.76L8.8 7.6V4Z" fill="black"/>
</svg>
