<svg width="22" height="14" viewBox="0 0 22 14" fill="none" xmlns="http://www.w3.org/2000/svg">
<path fill-rule="evenodd" clip-rule="evenodd" d="M0 3C0 2.45 0.45 2 1 2H3.66998C3.86998 2 4.04 1.87994 4.13 1.68994C4.61 0.689941 5.63001 0 6.82001 0C8.01001 0 9.02001 0.689941 9.51001 1.68994C9.60001 1.86994 9.76997 2 9.96997 2H21C21.55 2 22 2.45 22 3C22 3.55 21.55 4 21 4H9.96002C9.76002 4 9.59 4.12006 9.5 4.31006C9.02 5.31006 8 6 6.81 6C5.62 6 4.60999 5.31006 4.12 4.31006C4.02999 4.13006 3.85997 4 3.65997 4H1C0.45 4 0 3.55 0 3ZM21 10H18.33C18.13 10 17.96 9.87994 17.87 9.68994C17.39 8.68994 16.37 8 15.18 8C13.99 8 12.98 8.68994 12.49 9.68994C12.4 9.86994 12.23 10 12.03 10H1C0.45 10 0 10.45 0 11C0 11.55 0.45 12 1 12H12.04C12.24 12 12.41 12.1201 12.5 12.3101C12.98 13.3101 14 14 15.19 14C16.38 14 17.39 13.3101 17.88 12.3101C17.97 12.1301 18.14 12 18.34 12H21C21.55 12 22 11.55 22 11C22 10.45 21.55 10 21 10Z" fill="#BBBBBC"/>
</svg>
