<svg width="8" height="8" viewBox="0 0 8 8" fill="none" xmlns="http://www.w3.org/2000/svg">
<path fill-rule="evenodd" clip-rule="evenodd" d="M1.84609 7.5C1.73601 7.5 1.63096 7.465 1.5459 7.405C1.37579 7.285 1.30074 7.07 1.35577 6.87L1.93614 4.75L0.189997 3.37C0.0248888 3.24 -0.0401625 3.025 0.0248803 2.83C0.0899231 2.63 0.270059 2.495 0.480197 2.485L2.72166 2.37L3.52221 0.32C3.60226 0.124999 3.78736 0 3.9975 0C4.20763 0 4.39276 0.124999 4.47281 0.32L5.27834 2.37L7.51983 2.485C7.72997 2.495 7.91008 2.63 7.97512 2.83C8.04016 3.025 7.97511 3.245 7.81 3.37L6.06386 4.75L6.64426 6.87C6.69929 7.07 6.62424 7.285 6.45413 7.405C6.28402 7.525 6.05886 7.53 5.87874 7.42L3.99249 6.22L2.10627 7.42C2.04122 7.475 1.94615 7.5 1.84609 7.5Z" fill="black"/>
</svg>
